<mxfile host="app.diagrams.net" modified="2023-11-11T15:14:40.374Z" agent="Mozilla/5.0 (Windows NT 10.0; Win64; x64) AppleWebKit/537.36 (KHTML, like Gecko) Chrome/119.0.0.0 Safari/537.36" etag="3KYhWIwpVrXPv_0cj2wA" version="22.1.0" type="github">
  <diagram id="C5RBs43oDa-KdzZeNtuy" name="Page-1">
    <mxGraphModel dx="2812" dy="834" grid="1" gridSize="10" guides="1" tooltips="1" connect="1" arrows="1" fold="1" page="1" pageScale="1" pageWidth="827" pageHeight="1169" math="0" shadow="0">
      <root>
        <mxCell id="WIyWlLk6GJQsqaUBKTNV-0" />
        <mxCell id="WIyWlLk6GJQsqaUBKTNV-1" parent="WIyWlLk6GJQsqaUBKTNV-0" />
        <mxCell id="ka-RQTAtzn6AO5uNVBUh-3" value="" style="edgeStyle=orthogonalEdgeStyle;rounded=0;orthogonalLoop=1;jettySize=auto;html=1;entryX=0.5;entryY=0;entryDx=0;entryDy=0;" edge="1" parent="WIyWlLk6GJQsqaUBKTNV-1" source="WIyWlLk6GJQsqaUBKTNV-3">
          <mxGeometry relative="1" as="geometry">
            <mxPoint x="220" y="150" as="targetPoint" />
          </mxGeometry>
        </mxCell>
        <mxCell id="WIyWlLk6GJQsqaUBKTNV-3" value="메인페이지" style="rounded=1;whiteSpace=wrap;html=1;fontSize=12;glass=0;strokeWidth=1;shadow=0;" parent="WIyWlLk6GJQsqaUBKTNV-1" vertex="1">
          <mxGeometry x="160" y="70" width="120" height="40" as="geometry" />
        </mxCell>
        <mxCell id="WIyWlLk6GJQsqaUBKTNV-11" value="종료" style="rounded=1;whiteSpace=wrap;html=1;fontSize=12;glass=0;strokeWidth=1;shadow=0;" parent="WIyWlLk6GJQsqaUBKTNV-1" vertex="1">
          <mxGeometry x="420" y="670" width="440" height="40" as="geometry" />
        </mxCell>
        <mxCell id="ka-RQTAtzn6AO5uNVBUh-8" value="" style="edgeStyle=orthogonalEdgeStyle;rounded=0;orthogonalLoop=1;jettySize=auto;html=1;" edge="1" parent="WIyWlLk6GJQsqaUBKTNV-1" target="ka-RQTAtzn6AO5uNVBUh-7">
          <mxGeometry relative="1" as="geometry">
            <mxPoint x="160" y="169.9999999999999" as="sourcePoint" />
          </mxGeometry>
        </mxCell>
        <mxCell id="ka-RQTAtzn6AO5uNVBUh-34" value="" style="edgeStyle=orthogonalEdgeStyle;rounded=0;orthogonalLoop=1;jettySize=auto;html=1;exitX=1;exitY=0.5;exitDx=0;exitDy=0;" edge="1" parent="WIyWlLk6GJQsqaUBKTNV-1" target="ka-RQTAtzn6AO5uNVBUh-33">
          <mxGeometry relative="1" as="geometry">
            <mxPoint x="280" y="170" as="sourcePoint" />
          </mxGeometry>
        </mxCell>
        <mxCell id="ka-RQTAtzn6AO5uNVBUh-14" value="" style="edgeStyle=orthogonalEdgeStyle;rounded=0;orthogonalLoop=1;jettySize=auto;html=1;" edge="1" parent="WIyWlLk6GJQsqaUBKTNV-1" source="ka-RQTAtzn6AO5uNVBUh-7" target="ka-RQTAtzn6AO5uNVBUh-13">
          <mxGeometry relative="1" as="geometry" />
        </mxCell>
        <mxCell id="ka-RQTAtzn6AO5uNVBUh-7" value="친구 추가 버튼" style="whiteSpace=wrap;html=1;rounded=0;" vertex="1" parent="WIyWlLk6GJQsqaUBKTNV-1">
          <mxGeometry x="-20" y="220" width="120" height="40" as="geometry" />
        </mxCell>
        <mxCell id="ka-RQTAtzn6AO5uNVBUh-16" value="" style="edgeStyle=orthogonalEdgeStyle;rounded=0;orthogonalLoop=1;jettySize=auto;html=1;" edge="1" parent="WIyWlLk6GJQsqaUBKTNV-1" source="ka-RQTAtzn6AO5uNVBUh-13" target="ka-RQTAtzn6AO5uNVBUh-15">
          <mxGeometry relative="1" as="geometry" />
        </mxCell>
        <mxCell id="ka-RQTAtzn6AO5uNVBUh-21" value="" style="edgeStyle=orthogonalEdgeStyle;rounded=0;orthogonalLoop=1;jettySize=auto;html=1;" edge="1" parent="WIyWlLk6GJQsqaUBKTNV-1" source="ka-RQTAtzn6AO5uNVBUh-13" target="ka-RQTAtzn6AO5uNVBUh-20">
          <mxGeometry relative="1" as="geometry" />
        </mxCell>
        <mxCell id="ka-RQTAtzn6AO5uNVBUh-13" value="친구 아이디 작성" style="rhombus;whiteSpace=wrap;html=1;rounded=0;" vertex="1" parent="WIyWlLk6GJQsqaUBKTNV-1">
          <mxGeometry x="-40" y="290" width="160" height="60" as="geometry" />
        </mxCell>
        <mxCell id="ka-RQTAtzn6AO5uNVBUh-18" value="" style="edgeStyle=orthogonalEdgeStyle;rounded=0;orthogonalLoop=1;jettySize=auto;html=1;" edge="1" parent="WIyWlLk6GJQsqaUBKTNV-1" source="ka-RQTAtzn6AO5uNVBUh-15" target="ka-RQTAtzn6AO5uNVBUh-17">
          <mxGeometry relative="1" as="geometry" />
        </mxCell>
        <mxCell id="ka-RQTAtzn6AO5uNVBUh-15" value="친구 프로필 확인" style="whiteSpace=wrap;html=1;rounded=0;" vertex="1" parent="WIyWlLk6GJQsqaUBKTNV-1">
          <mxGeometry x="70" y="400" width="120" height="60" as="geometry" />
        </mxCell>
        <mxCell id="ka-RQTAtzn6AO5uNVBUh-28" value="" style="edgeStyle=orthogonalEdgeStyle;rounded=0;orthogonalLoop=1;jettySize=auto;html=1;" edge="1" parent="WIyWlLk6GJQsqaUBKTNV-1" source="ka-RQTAtzn6AO5uNVBUh-17" target="ka-RQTAtzn6AO5uNVBUh-27">
          <mxGeometry relative="1" as="geometry" />
        </mxCell>
        <mxCell id="ka-RQTAtzn6AO5uNVBUh-17" value="친구 신청 버튼" style="whiteSpace=wrap;html=1;rounded=0;" vertex="1" parent="WIyWlLk6GJQsqaUBKTNV-1">
          <mxGeometry x="70" y="500" width="120" height="40" as="geometry" />
        </mxCell>
        <mxCell id="ka-RQTAtzn6AO5uNVBUh-20" value="&#39;해당하는 &lt;br&gt;아이디 없음&#39; &lt;br&gt;알림창" style="whiteSpace=wrap;html=1;rounded=0;" vertex="1" parent="WIyWlLk6GJQsqaUBKTNV-1">
          <mxGeometry x="-110" y="400" width="120" height="60" as="geometry" />
        </mxCell>
        <mxCell id="ka-RQTAtzn6AO5uNVBUh-22" value="&lt;font style=&quot;font-size: 10px;&quot;&gt;아이디가 없을 경우&lt;/font&gt;" style="text;strokeColor=none;fillColor=none;html=1;fontSize=24;fontStyle=1;verticalAlign=middle;align=center;" vertex="1" parent="WIyWlLk6GJQsqaUBKTNV-1">
          <mxGeometry x="-70" y="330" width="100" height="40" as="geometry" />
        </mxCell>
        <mxCell id="ka-RQTAtzn6AO5uNVBUh-24" value="&lt;font style=&quot;font-size: 10px;&quot;&gt;아이디가 있을 경우&lt;/font&gt;" style="text;strokeColor=none;fillColor=none;html=1;fontSize=24;fontStyle=1;verticalAlign=middle;align=center;" vertex="1" parent="WIyWlLk6GJQsqaUBKTNV-1">
          <mxGeometry x="60" y="330" width="100" height="40" as="geometry" />
        </mxCell>
        <mxCell id="ka-RQTAtzn6AO5uNVBUh-29" value="" style="edgeStyle=orthogonalEdgeStyle;rounded=0;orthogonalLoop=1;jettySize=auto;html=1;" edge="1" parent="WIyWlLk6GJQsqaUBKTNV-1" source="ka-RQTAtzn6AO5uNVBUh-27" target="WIyWlLk6GJQsqaUBKTNV-11">
          <mxGeometry relative="1" as="geometry">
            <Array as="points">
              <mxPoint x="130" y="690" />
            </Array>
          </mxGeometry>
        </mxCell>
        <mxCell id="ka-RQTAtzn6AO5uNVBUh-27" value="창 닫기" style="whiteSpace=wrap;html=1;rounded=0;" vertex="1" parent="WIyWlLk6GJQsqaUBKTNV-1">
          <mxGeometry x="70" y="580" width="120" height="40" as="geometry" />
        </mxCell>
        <mxCell id="ka-RQTAtzn6AO5uNVBUh-36" value="" style="edgeStyle=orthogonalEdgeStyle;rounded=0;orthogonalLoop=1;jettySize=auto;html=1;" edge="1" parent="WIyWlLk6GJQsqaUBKTNV-1" source="ka-RQTAtzn6AO5uNVBUh-33" target="ka-RQTAtzn6AO5uNVBUh-35">
          <mxGeometry relative="1" as="geometry" />
        </mxCell>
        <mxCell id="ka-RQTAtzn6AO5uNVBUh-33" value="친구 목록 디스플레이" style="whiteSpace=wrap;html=1;rounded=0;" vertex="1" parent="WIyWlLk6GJQsqaUBKTNV-1">
          <mxGeometry x="514" y="150" width="120" height="40" as="geometry" />
        </mxCell>
        <mxCell id="ka-RQTAtzn6AO5uNVBUh-52" style="edgeStyle=orthogonalEdgeStyle;rounded=0;orthogonalLoop=1;jettySize=auto;html=1;exitX=0.5;exitY=1;exitDx=0;exitDy=0;entryX=0.5;entryY=0;entryDx=0;entryDy=0;" edge="1" parent="WIyWlLk6GJQsqaUBKTNV-1" source="ka-RQTAtzn6AO5uNVBUh-35" target="ka-RQTAtzn6AO5uNVBUh-48">
          <mxGeometry relative="1" as="geometry">
            <mxPoint x="574.6153846153848" y="310" as="targetPoint" />
          </mxGeometry>
        </mxCell>
        <mxCell id="ka-RQTAtzn6AO5uNVBUh-35" value="친구 프로필" style="whiteSpace=wrap;html=1;rounded=0;" vertex="1" parent="WIyWlLk6GJQsqaUBKTNV-1">
          <mxGeometry x="514" y="230" width="120" height="40" as="geometry" />
        </mxCell>
        <mxCell id="ka-RQTAtzn6AO5uNVBUh-66" style="edgeStyle=orthogonalEdgeStyle;rounded=0;orthogonalLoop=1;jettySize=auto;html=1;exitX=0.5;exitY=1;exitDx=0;exitDy=0;entryX=0.5;entryY=0;entryDx=0;entryDy=0;" edge="1" parent="WIyWlLk6GJQsqaUBKTNV-1" source="ka-RQTAtzn6AO5uNVBUh-37" target="ka-RQTAtzn6AO5uNVBUh-64">
          <mxGeometry relative="1" as="geometry">
            <Array as="points">
              <mxPoint x="440" y="460" />
              <mxPoint x="389" y="460" />
            </Array>
          </mxGeometry>
        </mxCell>
        <mxCell id="ka-RQTAtzn6AO5uNVBUh-67" style="edgeStyle=orthogonalEdgeStyle;rounded=0;orthogonalLoop=1;jettySize=auto;html=1;exitX=0.5;exitY=1;exitDx=0;exitDy=0;entryX=0.5;entryY=0;entryDx=0;entryDy=0;" edge="1" parent="WIyWlLk6GJQsqaUBKTNV-1" source="ka-RQTAtzn6AO5uNVBUh-37" target="ka-RQTAtzn6AO5uNVBUh-65">
          <mxGeometry relative="1" as="geometry">
            <Array as="points">
              <mxPoint x="440" y="460" />
              <mxPoint x="491" y="460" />
            </Array>
          </mxGeometry>
        </mxCell>
        <mxCell id="ka-RQTAtzn6AO5uNVBUh-37" value="게임 초대" style="rhombus;whiteSpace=wrap;html=1;rounded=0;" vertex="1" parent="WIyWlLk6GJQsqaUBKTNV-1">
          <mxGeometry x="380" y="305" width="120" height="70" as="geometry" />
        </mxCell>
        <mxCell id="ka-RQTAtzn6AO5uNVBUh-60" value="" style="edgeStyle=orthogonalEdgeStyle;rounded=0;orthogonalLoop=1;jettySize=auto;html=1;" edge="1" parent="WIyWlLk6GJQsqaUBKTNV-1" source="ka-RQTAtzn6AO5uNVBUh-39" target="ka-RQTAtzn6AO5uNVBUh-59">
          <mxGeometry relative="1" as="geometry" />
        </mxCell>
        <mxCell id="ka-RQTAtzn6AO5uNVBUh-61" value="" style="edgeStyle=orthogonalEdgeStyle;rounded=0;orthogonalLoop=1;jettySize=auto;html=1;" edge="1" parent="WIyWlLk6GJQsqaUBKTNV-1" source="ka-RQTAtzn6AO5uNVBUh-39" target="ka-RQTAtzn6AO5uNVBUh-59">
          <mxGeometry relative="1" as="geometry" />
        </mxCell>
        <mxCell id="ka-RQTAtzn6AO5uNVBUh-63" style="edgeStyle=orthogonalEdgeStyle;rounded=0;orthogonalLoop=1;jettySize=auto;html=1;exitX=0.5;exitY=1;exitDx=0;exitDy=0;entryX=0.5;entryY=0;entryDx=0;entryDy=0;" edge="1" parent="WIyWlLk6GJQsqaUBKTNV-1" source="ka-RQTAtzn6AO5uNVBUh-39" target="ka-RQTAtzn6AO5uNVBUh-62">
          <mxGeometry relative="1" as="geometry" />
        </mxCell>
        <mxCell id="ka-RQTAtzn6AO5uNVBUh-39" value="팀 초대" style="rhombus;whiteSpace=wrap;html=1;rounded=0;" vertex="1" parent="WIyWlLk6GJQsqaUBKTNV-1">
          <mxGeometry x="250" y="305" width="120" height="70" as="geometry" />
        </mxCell>
        <mxCell id="ka-RQTAtzn6AO5uNVBUh-72" style="edgeStyle=orthogonalEdgeStyle;rounded=0;orthogonalLoop=1;jettySize=auto;html=1;exitX=0.5;exitY=1;exitDx=0;exitDy=0;entryX=0.5;entryY=0;entryDx=0;entryDy=0;" edge="1" parent="WIyWlLk6GJQsqaUBKTNV-1" source="ka-RQTAtzn6AO5uNVBUh-44" target="ka-RQTAtzn6AO5uNVBUh-70">
          <mxGeometry relative="1" as="geometry">
            <Array as="points">
              <mxPoint x="710" y="540" />
              <mxPoint x="640" y="540" />
            </Array>
          </mxGeometry>
        </mxCell>
        <mxCell id="ka-RQTAtzn6AO5uNVBUh-44" value="친구 차단" style="whiteSpace=wrap;html=1;rounded=0;" vertex="1" parent="WIyWlLk6GJQsqaUBKTNV-1">
          <mxGeometry x="650" y="320" width="120" height="40" as="geometry" />
        </mxCell>
        <mxCell id="ka-RQTAtzn6AO5uNVBUh-73" style="edgeStyle=orthogonalEdgeStyle;rounded=0;orthogonalLoop=1;jettySize=auto;html=1;exitX=0.5;exitY=1;exitDx=0;exitDy=0;entryX=0.5;entryY=0;entryDx=0;entryDy=0;" edge="1" parent="WIyWlLk6GJQsqaUBKTNV-1" source="ka-RQTAtzn6AO5uNVBUh-45" target="ka-RQTAtzn6AO5uNVBUh-70">
          <mxGeometry relative="1" as="geometry">
            <Array as="points">
              <mxPoint x="846" y="540" />
              <mxPoint x="640" y="540" />
            </Array>
          </mxGeometry>
        </mxCell>
        <mxCell id="ka-RQTAtzn6AO5uNVBUh-45" value="현재 상태 확인" style="whiteSpace=wrap;html=1;rounded=0;" vertex="1" parent="WIyWlLk6GJQsqaUBKTNV-1">
          <mxGeometry x="786" y="320" width="120" height="40" as="geometry" />
        </mxCell>
        <mxCell id="ka-RQTAtzn6AO5uNVBUh-47" style="edgeStyle=orthogonalEdgeStyle;rounded=0;orthogonalLoop=1;jettySize=auto;html=1;exitX=0.5;exitY=1;exitDx=0;exitDy=0;" edge="1" parent="WIyWlLk6GJQsqaUBKTNV-1" source="ka-RQTAtzn6AO5uNVBUh-45" target="ka-RQTAtzn6AO5uNVBUh-45">
          <mxGeometry relative="1" as="geometry" />
        </mxCell>
        <mxCell id="ka-RQTAtzn6AO5uNVBUh-71" style="edgeStyle=orthogonalEdgeStyle;rounded=0;orthogonalLoop=1;jettySize=auto;html=1;exitX=0.5;exitY=1;exitDx=0;exitDy=0;entryX=0.5;entryY=0;entryDx=0;entryDy=0;" edge="1" parent="WIyWlLk6GJQsqaUBKTNV-1" source="ka-RQTAtzn6AO5uNVBUh-48" target="ka-RQTAtzn6AO5uNVBUh-70">
          <mxGeometry relative="1" as="geometry">
            <Array as="points">
              <mxPoint x="574" y="540" />
              <mxPoint x="640" y="540" />
            </Array>
          </mxGeometry>
        </mxCell>
        <mxCell id="ka-RQTAtzn6AO5uNVBUh-48" value="친구 삭제" style="whiteSpace=wrap;html=1;rounded=0;" vertex="1" parent="WIyWlLk6GJQsqaUBKTNV-1">
          <mxGeometry x="514" y="320" width="120" height="40" as="geometry" />
        </mxCell>
        <mxCell id="ka-RQTAtzn6AO5uNVBUh-54" style="edgeStyle=orthogonalEdgeStyle;rounded=0;orthogonalLoop=1;jettySize=auto;html=1;exitX=0.25;exitY=0.5;exitDx=0;exitDy=0;exitPerimeter=0;entryX=0.5;entryY=0;entryDx=0;entryDy=0;" edge="1" parent="WIyWlLk6GJQsqaUBKTNV-1" source="ka-RQTAtzn6AO5uNVBUh-53" target="ka-RQTAtzn6AO5uNVBUh-37">
          <mxGeometry relative="1" as="geometry">
            <Array as="points">
              <mxPoint x="440" y="285" />
            </Array>
          </mxGeometry>
        </mxCell>
        <mxCell id="ka-RQTAtzn6AO5uNVBUh-56" style="edgeStyle=orthogonalEdgeStyle;rounded=0;orthogonalLoop=1;jettySize=auto;html=1;exitX=0;exitY=0.5;exitDx=0;exitDy=0;exitPerimeter=0;entryX=0.5;entryY=0;entryDx=0;entryDy=0;" edge="1" parent="WIyWlLk6GJQsqaUBKTNV-1" source="ka-RQTAtzn6AO5uNVBUh-53" target="ka-RQTAtzn6AO5uNVBUh-39">
          <mxGeometry relative="1" as="geometry" />
        </mxCell>
        <mxCell id="ka-RQTAtzn6AO5uNVBUh-57" style="edgeStyle=orthogonalEdgeStyle;rounded=0;orthogonalLoop=1;jettySize=auto;html=1;exitX=0.75;exitY=0.5;exitDx=0;exitDy=0;exitPerimeter=0;entryX=0.5;entryY=0;entryDx=0;entryDy=0;" edge="1" parent="WIyWlLk6GJQsqaUBKTNV-1" source="ka-RQTAtzn6AO5uNVBUh-53" target="ka-RQTAtzn6AO5uNVBUh-44">
          <mxGeometry relative="1" as="geometry">
            <Array as="points">
              <mxPoint x="710" y="285" />
            </Array>
          </mxGeometry>
        </mxCell>
        <mxCell id="ka-RQTAtzn6AO5uNVBUh-58" style="edgeStyle=orthogonalEdgeStyle;rounded=0;orthogonalLoop=1;jettySize=auto;html=1;exitX=1;exitY=0.5;exitDx=0;exitDy=0;exitPerimeter=0;entryX=0.5;entryY=0;entryDx=0;entryDy=0;" edge="1" parent="WIyWlLk6GJQsqaUBKTNV-1" source="ka-RQTAtzn6AO5uNVBUh-53" target="ka-RQTAtzn6AO5uNVBUh-45">
          <mxGeometry relative="1" as="geometry">
            <Array as="points">
              <mxPoint x="846" y="285" />
            </Array>
          </mxGeometry>
        </mxCell>
        <mxCell id="ka-RQTAtzn6AO5uNVBUh-102" style="edgeStyle=orthogonalEdgeStyle;rounded=0;orthogonalLoop=1;jettySize=auto;html=1;exitX=0.838;exitY=0.562;exitDx=0;exitDy=0;exitPerimeter=0;entryX=0.5;entryY=0;entryDx=0;entryDy=0;" edge="1" parent="WIyWlLk6GJQsqaUBKTNV-1" source="ka-RQTAtzn6AO5uNVBUh-53" target="ka-RQTAtzn6AO5uNVBUh-100">
          <mxGeometry relative="1" as="geometry">
            <Array as="points" />
          </mxGeometry>
        </mxCell>
        <mxCell id="ka-RQTAtzn6AO5uNVBUh-53" value="" style="line;strokeWidth=2;html=1;" vertex="1" parent="WIyWlLk6GJQsqaUBKTNV-1">
          <mxGeometry x="310" y="280" width="800" height="10" as="geometry" />
        </mxCell>
        <mxCell id="ka-RQTAtzn6AO5uNVBUh-80" style="edgeStyle=orthogonalEdgeStyle;rounded=0;orthogonalLoop=1;jettySize=auto;html=1;exitX=0.5;exitY=1;exitDx=0;exitDy=0;entryX=0.5;entryY=0;entryDx=0;entryDy=0;" edge="1" parent="WIyWlLk6GJQsqaUBKTNV-1" source="ka-RQTAtzn6AO5uNVBUh-59" target="ka-RQTAtzn6AO5uNVBUh-70">
          <mxGeometry relative="1" as="geometry">
            <Array as="points">
              <mxPoint x="259" y="540" />
              <mxPoint x="640" y="540" />
            </Array>
          </mxGeometry>
        </mxCell>
        <mxCell id="ka-RQTAtzn6AO5uNVBUh-59" value="수락 알림" style="whiteSpace=wrap;html=1;rounded=0;" vertex="1" parent="WIyWlLk6GJQsqaUBKTNV-1">
          <mxGeometry x="213.5" y="410" width="90" height="40" as="geometry" />
        </mxCell>
        <mxCell id="ka-RQTAtzn6AO5uNVBUh-79" style="edgeStyle=orthogonalEdgeStyle;rounded=0;orthogonalLoop=1;jettySize=auto;html=1;exitX=0.5;exitY=1;exitDx=0;exitDy=0;entryX=0.5;entryY=0;entryDx=0;entryDy=0;" edge="1" parent="WIyWlLk6GJQsqaUBKTNV-1" source="ka-RQTAtzn6AO5uNVBUh-62" target="ka-RQTAtzn6AO5uNVBUh-70">
          <mxGeometry relative="1" as="geometry">
            <Array as="points">
              <mxPoint x="362" y="540" />
              <mxPoint x="640" y="540" />
            </Array>
          </mxGeometry>
        </mxCell>
        <mxCell id="ka-RQTAtzn6AO5uNVBUh-62" value="거절 알림" style="whiteSpace=wrap;html=1;rounded=0;" vertex="1" parent="WIyWlLk6GJQsqaUBKTNV-1">
          <mxGeometry x="316.5" y="410" width="90" height="40" as="geometry" />
        </mxCell>
        <mxCell id="ka-RQTAtzn6AO5uNVBUh-76" style="edgeStyle=orthogonalEdgeStyle;rounded=0;orthogonalLoop=1;jettySize=auto;html=1;exitX=0.5;exitY=1;exitDx=0;exitDy=0;entryX=0.5;entryY=0;entryDx=0;entryDy=0;" edge="1" parent="WIyWlLk6GJQsqaUBKTNV-1" source="ka-RQTAtzn6AO5uNVBUh-64" target="ka-RQTAtzn6AO5uNVBUh-70">
          <mxGeometry relative="1" as="geometry">
            <Array as="points">
              <mxPoint x="389" y="540" />
              <mxPoint x="640" y="540" />
            </Array>
          </mxGeometry>
        </mxCell>
        <mxCell id="ka-RQTAtzn6AO5uNVBUh-64" value="수락 알림" style="whiteSpace=wrap;html=1;rounded=0;" vertex="1" parent="WIyWlLk6GJQsqaUBKTNV-1">
          <mxGeometry x="343.5" y="480" width="90" height="40" as="geometry" />
        </mxCell>
        <mxCell id="ka-RQTAtzn6AO5uNVBUh-78" style="edgeStyle=orthogonalEdgeStyle;rounded=0;orthogonalLoop=1;jettySize=auto;html=1;exitX=0.5;exitY=1;exitDx=0;exitDy=0;entryX=0.5;entryY=0;entryDx=0;entryDy=0;" edge="1" parent="WIyWlLk6GJQsqaUBKTNV-1" source="ka-RQTAtzn6AO5uNVBUh-65" target="ka-RQTAtzn6AO5uNVBUh-70">
          <mxGeometry relative="1" as="geometry">
            <Array as="points">
              <mxPoint x="491" y="540" />
              <mxPoint x="640" y="540" />
            </Array>
          </mxGeometry>
        </mxCell>
        <mxCell id="ka-RQTAtzn6AO5uNVBUh-65" value="거절 알림" style="whiteSpace=wrap;html=1;rounded=0;" vertex="1" parent="WIyWlLk6GJQsqaUBKTNV-1">
          <mxGeometry x="446.5" y="480" width="90" height="40" as="geometry" />
        </mxCell>
        <mxCell id="ka-RQTAtzn6AO5uNVBUh-108" value="" style="edgeStyle=orthogonalEdgeStyle;rounded=0;orthogonalLoop=1;jettySize=auto;html=1;" edge="1" parent="WIyWlLk6GJQsqaUBKTNV-1" source="ka-RQTAtzn6AO5uNVBUh-70" target="WIyWlLk6GJQsqaUBKTNV-11">
          <mxGeometry relative="1" as="geometry" />
        </mxCell>
        <mxCell id="ka-RQTAtzn6AO5uNVBUh-70" value="창 닫기" style="whiteSpace=wrap;html=1;rounded=0;" vertex="1" parent="WIyWlLk6GJQsqaUBKTNV-1">
          <mxGeometry x="420" y="585" width="440" height="40" as="geometry" />
        </mxCell>
        <mxCell id="ka-RQTAtzn6AO5uNVBUh-82" value="&lt;font style=&quot;font-size: 10px;&quot;&gt;수락 시&lt;/font&gt;" style="text;strokeColor=none;fillColor=none;html=1;fontSize=24;fontStyle=1;verticalAlign=middle;align=center;" vertex="1" parent="WIyWlLk6GJQsqaUBKTNV-1">
          <mxGeometry x="250" y="360" width="50" height="20" as="geometry" />
        </mxCell>
        <mxCell id="ka-RQTAtzn6AO5uNVBUh-86" value="&lt;font style=&quot;font-size: 10px;&quot;&gt;거절 시&lt;/font&gt;" style="text;strokeColor=none;fillColor=none;html=1;fontSize=24;fontStyle=1;verticalAlign=middle;align=center;" vertex="1" parent="WIyWlLk6GJQsqaUBKTNV-1">
          <mxGeometry x="316.5" y="360" width="50" height="20" as="geometry" />
        </mxCell>
        <mxCell id="ka-RQTAtzn6AO5uNVBUh-88" value="&lt;font style=&quot;font-size: 10px;&quot;&gt;거절 시&lt;/font&gt;" style="text;strokeColor=none;fillColor=none;html=1;fontSize=24;fontStyle=1;verticalAlign=middle;align=center;" vertex="1" parent="WIyWlLk6GJQsqaUBKTNV-1">
          <mxGeometry x="450" y="360" width="50" height="20" as="geometry" />
        </mxCell>
        <mxCell id="ka-RQTAtzn6AO5uNVBUh-89" value="&lt;font style=&quot;font-size: 10px;&quot;&gt;수락 시&lt;/font&gt;" style="text;strokeColor=none;fillColor=none;html=1;fontSize=24;fontStyle=1;verticalAlign=middle;align=center;" vertex="1" parent="WIyWlLk6GJQsqaUBKTNV-1">
          <mxGeometry x="383.5" y="360" width="50" height="20" as="geometry" />
        </mxCell>
        <mxCell id="ka-RQTAtzn6AO5uNVBUh-94" value="" style="edgeStyle=orthogonalEdgeStyle;rounded=0;orthogonalLoop=1;jettySize=auto;html=1;" edge="1" parent="WIyWlLk6GJQsqaUBKTNV-1" source="ka-RQTAtzn6AO5uNVBUh-90">
          <mxGeometry relative="1" as="geometry">
            <mxPoint x="220" y="260" as="targetPoint" />
          </mxGeometry>
        </mxCell>
        <mxCell id="ka-RQTAtzn6AO5uNVBUh-90" value="친구 창 선택" style="html=1;whiteSpace=wrap;aspect=fixed;shape=isoRectangle;" vertex="1" parent="WIyWlLk6GJQsqaUBKTNV-1">
          <mxGeometry x="162.5" y="135.5" width="115" height="69" as="geometry" />
        </mxCell>
        <mxCell id="ka-RQTAtzn6AO5uNVBUh-95" value="&#39;친구가 없습니다&#39;&lt;br style=&quot;border-color: var(--border-color);&quot;&gt;디스플레이" style="whiteSpace=wrap;html=1;rounded=0;" vertex="1" parent="WIyWlLk6GJQsqaUBKTNV-1">
          <mxGeometry x="160" y="260" width="120" height="40" as="geometry" />
        </mxCell>
        <mxCell id="ka-RQTAtzn6AO5uNVBUh-96" value="&lt;font style=&quot;font-size: 10px;&quot;&gt;친구가 있을 경우&lt;/font&gt;" style="text;strokeColor=none;fillColor=none;html=1;fontSize=24;fontStyle=1;verticalAlign=middle;align=center;" vertex="1" parent="WIyWlLk6GJQsqaUBKTNV-1">
          <mxGeometry x="266.5" y="130" width="100" height="40" as="geometry" />
        </mxCell>
        <mxCell id="ka-RQTAtzn6AO5uNVBUh-97" value="&lt;font style=&quot;font-size: 10px;&quot;&gt;친구가 없을 경우&lt;/font&gt;" style="text;strokeColor=none;fillColor=none;html=1;fontSize=24;fontStyle=1;verticalAlign=middle;align=center;" vertex="1" parent="WIyWlLk6GJQsqaUBKTNV-1">
          <mxGeometry x="216.5" y="190" width="100" height="40" as="geometry" />
        </mxCell>
        <mxCell id="ka-RQTAtzn6AO5uNVBUh-98" value="&lt;font style=&quot;font-size: 10px;&quot;&gt;친구 유무 무관&lt;/font&gt;" style="text;strokeColor=none;fillColor=none;html=1;fontSize=24;fontStyle=1;verticalAlign=middle;align=center;" vertex="1" parent="WIyWlLk6GJQsqaUBKTNV-1">
          <mxGeometry x="70" y="130" width="100" height="40" as="geometry" />
        </mxCell>
        <mxCell id="ka-RQTAtzn6AO5uNVBUh-106" value="" style="edgeStyle=orthogonalEdgeStyle;rounded=0;orthogonalLoop=1;jettySize=auto;html=1;" edge="1" parent="WIyWlLk6GJQsqaUBKTNV-1" source="ka-RQTAtzn6AO5uNVBUh-100" target="ka-RQTAtzn6AO5uNVBUh-105">
          <mxGeometry relative="1" as="geometry" />
        </mxCell>
        <mxCell id="ka-RQTAtzn6AO5uNVBUh-100" value="채팅" style="whiteSpace=wrap;html=1;rounded=0;" vertex="1" parent="WIyWlLk6GJQsqaUBKTNV-1">
          <mxGeometry x="920" y="320" width="120" height="40" as="geometry" />
        </mxCell>
        <mxCell id="ka-RQTAtzn6AO5uNVBUh-110" value="" style="edgeStyle=orthogonalEdgeStyle;rounded=0;orthogonalLoop=1;jettySize=auto;html=1;" edge="1" parent="WIyWlLk6GJQsqaUBKTNV-1" target="ka-RQTAtzn6AO5uNVBUh-109">
          <mxGeometry relative="1" as="geometry">
            <mxPoint x="1140" y="340" as="sourcePoint" />
          </mxGeometry>
        </mxCell>
        <mxCell id="ka-RQTAtzn6AO5uNVBUh-103" value="통화" style="whiteSpace=wrap;html=1;rounded=0;" vertex="1" parent="WIyWlLk6GJQsqaUBKTNV-1">
          <mxGeometry x="1050" y="320" width="120" height="40" as="geometry" />
        </mxCell>
        <mxCell id="ka-RQTAtzn6AO5uNVBUh-104" style="edgeStyle=orthogonalEdgeStyle;rounded=0;orthogonalLoop=1;jettySize=auto;html=1;exitX=0.788;exitY=0.456;exitDx=0;exitDy=0;exitPerimeter=0;entryX=0.5;entryY=0;entryDx=0;entryDy=0;" edge="1" parent="WIyWlLk6GJQsqaUBKTNV-1">
          <mxGeometry relative="1" as="geometry">
            <mxPoint x="1109.92" y="285" as="sourcePoint" />
            <mxPoint x="1109.92" y="320" as="targetPoint" />
            <Array as="points" />
          </mxGeometry>
        </mxCell>
        <mxCell id="ka-RQTAtzn6AO5uNVBUh-107" style="edgeStyle=orthogonalEdgeStyle;rounded=0;orthogonalLoop=1;jettySize=auto;html=1;exitX=0.5;exitY=1;exitDx=0;exitDy=0;entryX=0.5;entryY=0;entryDx=0;entryDy=0;" edge="1" parent="WIyWlLk6GJQsqaUBKTNV-1" source="ka-RQTAtzn6AO5uNVBUh-105" target="ka-RQTAtzn6AO5uNVBUh-70">
          <mxGeometry relative="1" as="geometry">
            <Array as="points">
              <mxPoint x="981" y="540" />
              <mxPoint x="640" y="540" />
            </Array>
          </mxGeometry>
        </mxCell>
        <mxCell id="ka-RQTAtzn6AO5uNVBUh-105" value="채팅&lt;br&gt;입력창/버튼 디스플레이" style="whiteSpace=wrap;html=1;rounded=0;" vertex="1" parent="WIyWlLk6GJQsqaUBKTNV-1">
          <mxGeometry x="906" y="420" width="150" height="40" as="geometry" />
        </mxCell>
        <mxCell id="ka-RQTAtzn6AO5uNVBUh-115" value="" style="edgeStyle=orthogonalEdgeStyle;rounded=0;orthogonalLoop=1;jettySize=auto;html=1;" edge="1" parent="WIyWlLk6GJQsqaUBKTNV-1" source="ka-RQTAtzn6AO5uNVBUh-109" target="ka-RQTAtzn6AO5uNVBUh-113">
          <mxGeometry relative="1" as="geometry">
            <Array as="points">
              <mxPoint x="1280" y="410" />
              <mxPoint x="1190" y="410" />
            </Array>
          </mxGeometry>
        </mxCell>
        <mxCell id="ka-RQTAtzn6AO5uNVBUh-109" value="통화 걸기" style="rhombus;whiteSpace=wrap;html=1;rounded=0;" vertex="1" parent="WIyWlLk6GJQsqaUBKTNV-1">
          <mxGeometry x="1240" y="310" width="80" height="60" as="geometry" />
        </mxCell>
        <mxCell id="ka-RQTAtzn6AO5uNVBUh-117" style="edgeStyle=orthogonalEdgeStyle;rounded=0;orthogonalLoop=1;jettySize=auto;html=1;exitX=1;exitY=0.25;exitDx=0;exitDy=0;entryX=0.5;entryY=0;entryDx=0;entryDy=0;" edge="1" parent="WIyWlLk6GJQsqaUBKTNV-1" source="ka-RQTAtzn6AO5uNVBUh-111" target="ka-RQTAtzn6AO5uNVBUh-116">
          <mxGeometry relative="1" as="geometry">
            <Array as="points">
              <mxPoint x="1280" y="410" />
              <mxPoint x="1360" y="410" />
            </Array>
          </mxGeometry>
        </mxCell>
        <mxCell id="ka-RQTAtzn6AO5uNVBUh-111" value="&lt;font style=&quot;font-size: 10px;&quot;&gt;친구가 접속 중일 경우&lt;/font&gt;" style="text;strokeColor=none;fillColor=none;html=1;fontSize=24;fontStyle=1;verticalAlign=middle;align=center;" vertex="1" parent="WIyWlLk6GJQsqaUBKTNV-1">
          <mxGeometry x="1160" y="370" width="120" height="40" as="geometry" />
        </mxCell>
        <mxCell id="ka-RQTAtzn6AO5uNVBUh-112" value="&lt;font style=&quot;font-size: 10px;&quot;&gt;친구가 미접속일 경우&lt;/font&gt;" style="text;strokeColor=none;fillColor=none;html=1;fontSize=24;fontStyle=1;verticalAlign=middle;align=center;" vertex="1" parent="WIyWlLk6GJQsqaUBKTNV-1">
          <mxGeometry x="1280" y="370" width="120" height="40" as="geometry" />
        </mxCell>
        <mxCell id="ka-RQTAtzn6AO5uNVBUh-118" style="edgeStyle=orthogonalEdgeStyle;rounded=0;orthogonalLoop=1;jettySize=auto;html=1;exitX=0.5;exitY=1;exitDx=0;exitDy=0;entryX=0.5;entryY=0;entryDx=0;entryDy=0;" edge="1" parent="WIyWlLk6GJQsqaUBKTNV-1" source="ka-RQTAtzn6AO5uNVBUh-113" target="ka-RQTAtzn6AO5uNVBUh-70">
          <mxGeometry relative="1" as="geometry">
            <Array as="points">
              <mxPoint x="1190" y="540" />
              <mxPoint x="640" y="540" />
            </Array>
          </mxGeometry>
        </mxCell>
        <mxCell id="ka-RQTAtzn6AO5uNVBUh-113" value="&#39;상대방이 통화를 받을 수 없는 상태입니다&#39;&lt;br&gt;알림창" style="whiteSpace=wrap;html=1;rounded=0;" vertex="1" parent="WIyWlLk6GJQsqaUBKTNV-1">
          <mxGeometry x="1130" y="430" width="120" height="50" as="geometry" />
        </mxCell>
        <mxCell id="ka-RQTAtzn6AO5uNVBUh-120" style="edgeStyle=orthogonalEdgeStyle;rounded=0;orthogonalLoop=1;jettySize=auto;html=1;exitX=0.5;exitY=1;exitDx=0;exitDy=0;entryX=0.5;entryY=0;entryDx=0;entryDy=0;" edge="1" parent="WIyWlLk6GJQsqaUBKTNV-1" source="ka-RQTAtzn6AO5uNVBUh-116" target="ka-RQTAtzn6AO5uNVBUh-70">
          <mxGeometry relative="1" as="geometry">
            <Array as="points">
              <mxPoint x="1360" y="540" />
              <mxPoint x="640" y="540" />
            </Array>
          </mxGeometry>
        </mxCell>
        <mxCell id="ka-RQTAtzn6AO5uNVBUh-116" value="통화 연결" style="whiteSpace=wrap;html=1;rounded=0;" vertex="1" parent="WIyWlLk6GJQsqaUBKTNV-1">
          <mxGeometry x="1300" y="430" width="120" height="50" as="geometry" />
        </mxCell>
      </root>
    </mxGraphModel>
  </diagram>
</mxfile>
